# xmcd
#
# Track frame offsets: 
#        150
#        12663
#        33725
#        48337
#        63543
#        86279
#        106540
#        123183
#        136049
#        154396
#
# Disc length: 2405 seconds
#
# Revision: 0
# Processed by: cddbd v1.5.2PL0 Copyright (c) Steve Scherf et al.
# Submitted via: ExactAudioCopy v0.95b3
#
DISCID=7a09630a
DTITLE=Razia - Zebu Nation
DYEAR=2010
DGENRE=World
TTITLE0=Babonao
TTITLE1=Omama
TTITLE2=Yoyoyo
TTITLE3=Salamalama Aby
TTITLE4=NY Alantsika
TTITLE5=Slash and Burn
TTITLE6=Tsy Tara
TTITLE7=Lalike
TTITLE8=Tiako Ro
TTITLE9=Mifohaza
EXTD=
EXTT0=
EXTT1=
EXTT2=
EXTT3=
EXTT4=
EXTT5=
EXTT6=
EXTT7=
EXTT8=
EXTT9=
PLAYORDER=
